<svg width="13" height="13" viewBox="0 0 13 13" fill="none" xmlns="http://www.w3.org/2000/svg">
<path d="M11.4766 0H1.52344C0.683414 0 0 0.683414 0 1.52344V11.4766C0 12.3166 0.683414 13 1.52344 13H11.4766C12.3166 13 13 12.3166 13 11.4766V1.52344C13 0.683414 12.3166 0 11.4766 0ZM11.9844 11.4766C11.9844 11.7566 11.7566 11.9844 11.4766 11.9844H8.58203V7.8457H10.1509L10.4102 6.27148H8.58203V5.17969C8.58203 4.74868 8.91274 4.41797 9.34375 4.41797H10.3848V2.84375H9.34375C8.05078 2.84375 7.00837 3.89111 7.00837 5.18411V6.27148H5.48438V7.8457H7.00837V11.9844H1.52344C1.24343 11.9844 1.01562 11.7566 1.01562 11.4766V1.52344C1.01562 1.24343 1.24343 1.01562 1.52344 1.01562H11.4766C11.7566 1.01562 11.9844 1.24343 11.9844 1.52344V11.4766Z" fill="white"/>
</svg>
