<svg width="13" height="13" viewBox="0 0 13 13" fill="none" xmlns="http://www.w3.org/2000/svg">
<g clip-path="url(#clip0_64_76)">
<path d="M12.9879 9.17796C12.9574 9.8687 12.8457 10.3436 12.6857 10.7551C12.5206 11.1919 12.2667 11.5829 11.934 11.908C11.6089 12.2381 11.2152 12.4947 10.7835 12.6572C10.3697 12.8172 9.89726 12.9289 9.20652 12.9593C8.51062 12.9924 8.2897 13 6.52471 13C4.75971 13 4.53879 12.9924 3.84547 12.9619C3.15473 12.9315 2.67985 12.8197 2.26847 12.6597C1.83158 12.4947 1.44053 12.2407 1.11545 11.908C0.785305 11.5829 0.528869 11.1893 0.366278 10.7575C0.206266 10.3436 0.094565 9.87128 0.0641101 9.18054C0.031076 8.48464 0.0234375 8.26372 0.0234375 6.49873C0.0234375 4.73374 0.031076 4.51281 0.0615309 3.8195C0.0919857 3.12876 0.203786 2.65388 0.363798 2.24239C0.528869 1.8056 0.785305 1.41455 1.11545 1.08947C1.44053 0.759327 1.83416 0.502792 2.26589 0.3403C2.67985 0.180287 3.15215 0.0685873 3.84299 0.0381317C4.53621 0.0075779 4.75723 3.91006e-05 6.52223 3.91006e-05C8.28722 3.91006e-05 8.50814 0.0075779 9.20146 0.0381317C9.8922 0.0685873 10.3671 0.180287 10.7785 0.3403C11.6521 0.678081 12.3429 1.36882 12.6807 2.24239C12.8406 2.65636 12.9524 3.12876 12.9828 3.8195C13.0133 4.51281 13.0209 4.73374 13.0209 6.49873C13.0209 8.26372 13.0183 8.48464 12.9879 9.17796ZM11.8172 3.87029C11.7892 3.2354 11.6826 2.89256 11.5937 2.664C11.3753 2.09765 10.9258 1.64817 10.3594 1.42973C10.1309 1.34085 9.78556 1.2342 9.15315 1.20633C8.46747 1.17577 8.26182 1.16824 6.52728 1.16824C4.79275 1.16824 4.58452 1.17577 3.90132 1.20633C3.26643 1.2342 2.92359 1.34085 2.69503 1.42973C2.4132 1.53389 2.15667 1.69896 1.94844 1.91483C1.73258 2.12563 1.56751 2.37959 1.46335 2.66142C1.37446 2.88998 1.26782 3.2354 1.23995 3.86771C1.20939 4.55339 1.20185 4.75913 1.20185 6.49367C1.20185 8.22821 1.20939 8.43643 1.23995 9.11953C1.26782 9.75442 1.37446 10.0973 1.46335 10.3258C1.56751 10.6078 1.73258 10.8642 1.95102 11.0725C2.16173 11.2884 2.41568 11.4534 2.69761 11.5575C2.92617 11.6464 3.27159 11.753 3.9039 11.781C4.58958 11.8115 4.79533 11.8191 6.52976 11.8191C8.26688 11.8191 8.47253 11.8115 9.15573 11.781C9.79062 11.753 10.1335 11.6464 10.362 11.5575C10.6438 11.4534 10.9004 11.2884 11.1086 11.0725C11.3245 10.8617 11.4895 10.6078 11.5937 10.3258C11.6826 10.0973 11.7892 9.75194 11.8172 9.11953C11.8477 8.43385 11.8553 8.22821 11.8553 6.49367C11.8553 4.75913 11.8477 4.55597 11.8172 3.87029Z" fill="white"/>
<path d="M6.52507 9.83838C4.68141 9.83838 3.18555 8.34262 3.18555 6.49886C3.18555 4.6551 4.68141 3.15934 6.52507 3.15934C8.36882 3.15934 9.86458 4.6551 9.86458 6.49886C9.86458 8.34262 8.36882 9.83838 6.52507 9.83838ZM6.52507 4.3326C5.32899 4.3326 4.3588 5.30269 4.3588 6.49886C4.3588 7.69503 5.32899 8.66512 6.52507 8.66512C7.72124 8.66512 8.69133 7.69503 8.69133 6.49886C8.69133 5.30269 7.72124 4.3326 6.52507 4.3326Z" fill="white"/>
<path d="M10.7761 9.97038C10.7761 9.53984 10.4271 9.19075 9.99642 9.19075C9.56589 9.19075 9.2168 9.53984 9.2168 9.97038C9.2168 10.401 9.56589 10.75 9.99642 10.75C10.4271 10.75 10.7761 10.401 10.7761 9.97038Z" fill="white"/>
</g>
<defs>
<clipPath id="clip0_64_76">
<rect width="13" height="13" fill="white" transform="matrix(1 0 0 -1 0 13)"/>
</clipPath>
</defs>
</svg>
