<svg width="13" height="13" viewBox="0 0 13 13" fill="none" xmlns="http://www.w3.org/2000/svg">
<path d="M9.56674 0H3.43326C1.508 0 0 1.508 0 3.43326V9.56674C0 11.492 1.508 13 3.43326 13H9.56674C11.492 13 13 11.492 13 9.56674V3.43326C13 1.508 11.4916 0 9.56674 0ZM12.1613 9.56674C12.1613 11.0219 11.0215 12.1613 9.56674 12.1613H3.43326C1.97852 12.1613 0.83871 11.0215 0.83871 9.56674V3.43326C0.83871 1.97852 1.97852 0.83871 3.43326 0.83871H9.56674C11.0219 0.83871 12.1613 1.97852 12.1613 3.43326V9.56674Z" fill="white"/>
<path d="M10.59 3.31903C10.4554 3.22048 10.275 3.2121 10.1312 3.29597C9.98779 3.38026 9.66992 3.42177 9.41495 3.45532C9.36211 3.46245 9.31011 3.46916 9.25979 3.47629C8.90292 3.18022 8.44708 3.01416 7.97698 3.01416C6.91811 3.01416 6.04921 3.83358 5.98757 4.86435C5.02724 4.70248 4.14786 4.20177 3.5247 3.44945C3.43202 3.33706 3.28818 3.28213 3.14308 3.301C2.99883 3.32113 2.87554 3.41464 2.81725 3.548C2.79041 3.60922 2.55641 4.185 2.55641 5.60913C2.55641 6.84245 3.52973 7.74868 4.19734 8.22548C3.74066 8.43306 3.21437 8.50939 2.7145 8.45403C2.51908 8.43306 2.33625 8.54797 2.27167 8.73206C2.20708 8.91658 2.27837 9.12122 2.4436 9.22564C3.23199 9.723 4.14324 9.98593 5.07924 9.98593C8.08518 9.98593 9.90434 7.62455 9.97185 5.29629C10.0582 5.1709 10.223 4.92684 10.5015 4.49868C10.613 4.32632 10.7066 3.95477 10.7523 3.74887C10.7888 3.58616 10.7246 3.41716 10.59 3.31903ZM9.21534 4.9151C9.16376 4.98639 9.13566 5.07277 9.13566 5.16084C9.13566 6.81603 7.87718 9.14722 5.07966 9.14722C4.82679 9.14722 4.57602 9.12416 4.33028 9.07887C4.65821 8.95474 4.96812 8.78155 5.25286 8.56222C5.36692 8.47458 5.42773 8.33368 5.41431 8.19068C5.40089 8.04768 5.31492 7.92103 5.18618 7.85603C5.16815 7.84681 3.39554 6.91458 3.39554 5.60955C3.39554 5.17216 3.41902 4.82829 3.45005 4.56661C4.27324 5.27532 5.32079 5.69929 6.42328 5.7538C6.43166 5.75422 6.44047 5.75464 6.44844 5.75422C6.6925 5.7471 6.87199 5.56803 6.87199 5.33487C6.87199 5.277 6.86024 5.22206 6.83886 5.17174C6.82837 5.10884 6.82292 5.04551 6.82292 4.98219C6.82292 4.35945 7.3404 3.85287 7.97698 3.85287C8.29653 3.85287 8.60392 3.98371 8.82073 4.21142C8.91969 4.31458 9.06437 4.36113 9.20402 4.33387C9.29921 4.31584 9.40908 4.30158 9.5244 4.28648C9.5655 4.28103 9.60702 4.27558 9.64937 4.26971C9.33444 4.74945 9.22079 4.90755 9.21534 4.9151Z" fill="white"/>
</svg>
