<svg width="16" height="17" viewBox="0 0 16 17" fill="none" xmlns="http://www.w3.org/2000/svg">
<path d="M10.5922 8.07766L6.84222 5.58742C6.69769 5.49147 6.51556 5.48639 6.36653 5.57414C6.21747 5.6619 6.125 5.82871 6.125 6.00977V10.9902C6.125 11.1713 6.21747 11.3381 6.36653 11.4259C6.43734 11.4676 6.51559 11.4883 6.59375 11.4883C6.68009 11.4883 6.76631 11.4629 6.84219 11.4126L10.5922 8.92235C10.7293 8.83134 10.8125 8.67173 10.8125 8.5C10.8125 8.32828 10.7293 8.16867 10.5922 8.07766ZM7.06253 10.0916V6.90834L9.45934 8.5L7.06253 10.0916Z" fill="white"/>
<path d="M13.6562 2.02539H2.34375C1.05141 2.02539 0 3.14251 0 4.51562V12.4844C0 13.8575 1.05141 14.9746 2.34375 14.9746H13.6562C14.9486 14.9746 16 13.8575 16 12.4844V4.51562C16 3.14251 14.9486 2.02539 13.6562 2.02539ZM15.0625 12.4844C15.0625 13.3082 14.4317 13.9785 13.6562 13.9785H2.34375C1.56834 13.9785 0.9375 13.3082 0.9375 12.4844V4.51562C0.9375 3.69176 1.56834 3.02148 2.34375 3.02148H13.6562C14.4317 3.02148 15.0625 3.69176 15.0625 4.51562V12.4844Z" fill="white"/>
</svg>
